<svg width="512" height="512" viewBox="0 0 512 512" fill="none" xmlns="http://www.w3.org/2000/svg">
<path d="M152 221.5C152 268.72 190.28 307 237.5 307H351C386.899 307 416 277.899 416 242C416 206.101 386.899 177 351 177C338.064 177 326.01 180.779 315.883 187.293C302.688 157.1 272.558 136 237.5 136C190.28 136 152 174.28 152 221.5Z" fill="#ECECEC"/>
<g filter="url(#filter0_d_11_105)">
<path d="M341 306.5C341 353.72 302.72 392 255.5 392H142C106.101 392 77 362.899 77 327C77 291.101 106.101 262 142 262C154.936 262 166.99 265.779 177.117 272.293C190.312 242.1 220.442 221 255.5 221C302.72 221 341 259.28 341 306.5Z" fill="#ECECEC"/>
</g>
<defs>
<filter id="filter0_d_11_105" x="77" y="210" width="276" height="183" filterUnits="userSpaceOnUse" color-interpolation-filters="sRGB">
<feFlood flood-opacity="0" result="BackgroundImageFix"/>
<feColorMatrix in="SourceAlpha" type="matrix" values="0 0 0 0 0 0 0 0 0 0 0 0 0 0 0 0 0 0 127 0" result="hardAlpha"/>
<feOffset dx="6" dy="-5"/>
<feGaussianBlur stdDeviation="3"/>
<feComposite in2="hardAlpha" operator="out"/>
<feColorMatrix type="matrix" values="0 0 0 0 0.691808 0 0 0 0 0.691808 0 0 0 0 0.691808 0 0 0 0.25 0"/>
<feBlend mode="normal" in2="BackgroundImageFix" result="effect1_dropShadow_11_105"/>
<feBlend mode="normal" in="SourceGraphic" in2="effect1_dropShadow_11_105" result="shape"/>
</filter>
</defs>
</svg>
