<svg width="512" height="512" viewBox="0 0 512 512" fill="none" xmlns="http://www.w3.org/2000/svg">
<path d="M281.01 224.297L284.536 232.364L291.94 227.601C300.894 221.842 311.545 218.5 323 218.5C354.756 218.5 380.5 244.244 380.5 276C380.5 307.756 354.756 333.5 323 333.5H209.5C166.422 333.5 131.5 298.578 131.5 255.5C131.5 212.422 166.422 177.5 209.5 177.5C241.471 177.5 268.966 196.736 281.01 224.297Z" stroke="#ECECEC" stroke-width="15"/>
<g clip-path="url(#clip0_11_54)">
<path d="M270.875 269C272.604 269 274 270.396 274 272.125V275.064L275.465 273.6C276.383 272.682 277.867 272.682 278.775 273.6C279.684 274.518 279.693 276.002 278.775 276.91L273.99 281.695V288.561L279.986 285.064L281.715 278.609C282.047 277.359 283.336 276.617 284.586 276.949C285.836 277.281 286.578 278.57 286.246 279.82L285.738 281.705L288.043 280.357C289.537 279.488 291.451 279.996 292.32 281.48C293.189 282.965 292.691 284.889 291.197 285.758L288.727 287.203L290.846 287.77C292.096 288.102 292.838 289.391 292.506 290.641C292.174 291.891 290.885 292.633 289.635 292.301L283.023 290.533L277.076 294L283.023 297.467L289.635 295.699C290.885 295.367 292.174 296.109 292.506 297.359C292.838 298.609 292.096 299.898 290.846 300.23L288.727 300.797L291.197 302.242C292.691 303.111 293.189 305.025 292.32 306.52C291.451 308.014 289.537 308.512 288.043 307.643L285.738 306.295L286.246 308.18C286.578 309.43 285.836 310.719 284.586 311.051C283.336 311.383 282.047 310.641 281.715 309.391L279.986 302.936L274 299.439V306.305L278.785 311.09C279.703 312.008 279.703 313.492 278.785 314.4C277.867 315.309 276.383 315.318 275.475 314.4L274.01 312.936V315.875C274.01 317.604 272.613 319 270.885 319C269.156 319 267.76 317.604 267.76 315.875V312.936L266.295 314.4C265.377 315.318 263.893 315.318 262.984 314.4C262.076 313.482 262.066 311.998 262.984 311.09L267.77 306.305V299.439L261.773 302.936L260.045 309.391C259.713 310.641 258.424 311.383 257.174 311.051C255.924 310.719 255.182 309.43 255.514 308.18L256.021 306.295L253.697 307.633C252.203 308.502 250.289 307.994 249.42 306.51C248.551 305.025 249.059 303.102 250.543 302.232L253.014 300.787L250.895 300.221C249.645 299.889 248.902 298.6 249.234 297.35C249.566 296.1 250.855 295.357 252.105 295.689L258.717 297.457L264.674 294L258.727 290.533L252.115 292.301C250.865 292.633 249.576 291.891 249.244 290.641C248.912 289.391 249.654 288.102 250.904 287.77L253.023 287.203L250.553 285.758C249.059 284.889 248.561 282.975 249.43 281.49C250.299 280.006 252.213 279.498 253.707 280.367L256.012 281.715L255.504 279.83C255.172 278.58 255.914 277.291 257.164 276.959C258.414 276.627 259.703 277.369 260.035 278.619L261.764 285.074L267.75 288.561V281.695L262.965 276.91C262.047 275.992 262.047 274.508 262.965 273.6C263.883 272.691 265.367 272.682 266.275 273.6L267.74 275.064L267.75 272.125C267.75 270.396 269.146 269 270.875 269Z" fill="#74C5FF"/>
</g>
<g clip-path="url(#clip1_11_54)">
<path d="M248.875 341C250.604 341 252 342.396 252 344.125V347.064L253.465 345.6C254.383 344.682 255.867 344.682 256.775 345.6C257.684 346.518 257.693 348.002 256.775 348.91L251.99 353.695V360.561L257.986 357.064L259.715 350.609C260.047 349.359 261.336 348.617 262.586 348.949C263.836 349.281 264.578 350.57 264.246 351.82L263.738 353.705L266.043 352.357C267.537 351.488 269.451 351.996 270.32 353.48C271.189 354.965 270.691 356.889 269.197 357.758L266.727 359.203L268.846 359.77C270.096 360.102 270.838 361.391 270.506 362.641C270.174 363.891 268.885 364.633 267.635 364.301L261.023 362.533L255.076 366L261.023 369.467L267.635 367.699C268.885 367.367 270.174 368.109 270.506 369.359C270.838 370.609 270.096 371.898 268.846 372.23L266.727 372.797L269.197 374.242C270.691 375.111 271.189 377.025 270.32 378.52C269.451 380.014 267.537 380.512 266.043 379.643L263.738 378.295L264.246 380.18C264.578 381.43 263.836 382.719 262.586 383.051C261.336 383.383 260.047 382.641 259.715 381.391L257.986 374.936L252 371.439V378.305L256.785 383.09C257.703 384.008 257.703 385.492 256.785 386.4C255.867 387.309 254.383 387.318 253.475 386.4L252.01 384.936V387.875C252.01 389.604 250.613 391 248.885 391C247.156 391 245.76 389.604 245.76 387.875V384.936L244.295 386.4C243.377 387.318 241.893 387.318 240.984 386.4C240.076 385.482 240.066 383.998 240.984 383.09L245.77 378.305V371.439L239.773 374.936L238.045 381.391C237.713 382.641 236.424 383.383 235.174 383.051C233.924 382.719 233.182 381.43 233.514 380.18L234.021 378.295L231.697 379.633C230.203 380.502 228.289 379.994 227.42 378.51C226.551 377.025 227.059 375.102 228.543 374.232L231.014 372.787L228.895 372.221C227.645 371.889 226.902 370.6 227.234 369.35C227.566 368.1 228.855 367.357 230.105 367.689L236.717 369.457L242.674 366L236.727 362.533L230.115 364.301C228.865 364.633 227.576 363.891 227.244 362.641C226.912 361.391 227.654 360.102 228.904 359.77L231.023 359.203L228.553 357.758C227.059 356.889 226.561 354.975 227.43 353.49C228.299 352.006 230.213 351.498 231.707 352.367L234.012 353.715L233.504 351.83C233.172 350.58 233.914 349.291 235.164 348.959C236.414 348.627 237.703 349.369 238.035 350.619L239.764 357.074L245.75 360.561V353.695L240.965 348.91C240.047 347.992 240.047 346.508 240.965 345.6C241.883 344.691 243.367 344.682 244.275 345.6L245.74 347.064L245.75 344.125C245.75 342.396 247.146 341 248.875 341Z" fill="#74C5FF"/>
</g>
<g clip-path="url(#clip2_11_54)">
<path d="M324.875 341C326.603 341 328 342.396 328 344.125V347.064L329.465 345.6C330.383 344.682 331.867 344.682 332.775 345.6C333.684 346.518 333.693 348.002 332.775 348.91L327.99 353.695V360.561L333.986 357.064L335.715 350.609C336.047 349.359 337.336 348.617 338.586 348.949C339.836 349.281 340.578 350.57 340.246 351.82L339.738 353.705L342.043 352.357C343.537 351.488 345.451 351.996 346.32 353.48C347.189 354.965 346.691 356.889 345.197 357.758L342.727 359.203L344.846 359.77C346.096 360.102 346.838 361.391 346.506 362.641C346.174 363.891 344.885 364.633 343.635 364.301L337.023 362.533L331.076 366L337.023 369.467L343.635 367.699C344.885 367.367 346.174 368.109 346.506 369.359C346.838 370.609 346.096 371.898 344.846 372.23L342.727 372.797L345.197 374.242C346.691 375.111 347.189 377.025 346.32 378.52C345.451 380.014 343.537 380.512 342.043 379.643L339.738 378.295L340.246 380.18C340.578 381.43 339.836 382.719 338.586 383.051C337.336 383.383 336.047 382.641 335.715 381.391L333.986 374.936L328 371.439V378.305L332.785 383.09C333.703 384.008 333.703 385.492 332.785 386.4C331.867 387.309 330.383 387.318 329.475 386.4L328.01 384.936V387.875C328.01 389.604 326.613 391 324.885 391C323.156 391 321.76 389.604 321.76 387.875V384.936L320.295 386.4C319.377 387.318 317.893 387.318 316.984 386.4C316.076 385.482 316.066 383.998 316.984 383.09L321.769 378.305V371.439L315.773 374.936L314.045 381.391C313.713 382.641 312.424 383.383 311.174 383.051C309.924 382.719 309.182 381.43 309.514 380.18L310.021 378.295L307.697 379.633C306.203 380.502 304.289 379.994 303.42 378.51C302.551 377.025 303.059 375.102 304.543 374.232L307.014 372.787L304.894 372.221C303.644 371.889 302.902 370.6 303.234 369.35C303.566 368.1 304.855 367.357 306.105 367.689L312.717 369.457L318.674 366L312.727 362.533L306.115 364.301C304.865 364.633 303.576 363.891 303.244 362.641C302.912 361.391 303.654 360.102 304.904 359.77L307.023 359.203L304.553 357.758C303.059 356.889 302.56 354.975 303.43 353.49C304.299 352.006 306.213 351.498 307.707 352.367L310.012 353.715L309.504 351.83C309.172 350.58 309.914 349.291 311.164 348.959C312.414 348.627 313.703 349.369 314.035 350.619L315.764 357.074L321.75 360.561V353.695L316.965 348.91C316.047 347.992 316.047 346.508 316.965 345.6C317.883 344.691 319.367 344.682 320.275 345.6L321.74 347.064L321.75 344.125C321.75 342.396 323.146 341 324.875 341Z" fill="#74C5FF"/>
</g>
<defs>
<clipPath id="clip0_11_54">
<rect width="43.75" height="50" fill="white" transform="translate(249 269)"/>
</clipPath>
<clipPath id="clip1_11_54">
<rect width="43.75" height="50" fill="white" transform="translate(227 341)"/>
</clipPath>
<clipPath id="clip2_11_54">
<rect width="43.75" height="50" fill="white" transform="translate(303 341)"/>
</clipPath>
</defs>
</svg>
