<svg width="512" height="512" viewBox="0 0 512 512" fill="none" xmlns="http://www.w3.org/2000/svg">
<g filter="url(#filter0_i_11_28)">
<circle cx="256" cy="256" r="200" fill="#FFDD55"/>
</g>
<path fill-rule="evenodd" clip-rule="evenodd" d="M249.371 188.433C253.032 184.772 258.968 184.772 262.629 188.433L318.879 244.683C322.54 248.345 322.54 254.28 318.879 257.942C315.218 261.603 309.282 261.603 305.621 257.942L256 208.321L206.379 257.942C202.718 261.603 196.782 261.603 193.121 257.942C189.46 254.28 189.46 248.345 193.121 244.683L249.371 188.433Z" fill="white"/>
<path fill-rule="evenodd" clip-rule="evenodd" d="M256 193.5C261.178 193.5 265.375 197.697 265.375 202.875V316.937C265.375 322.115 261.178 326.312 256 326.312C250.822 326.312 246.625 322.115 246.625 316.937V202.875C246.625 197.697 250.822 193.5 256 193.5Z" fill="white"/>
<defs>
<filter id="filter0_i_11_28" x="56" y="56" width="400" height="400" filterUnits="userSpaceOnUse" color-interpolation-filters="sRGB">
<feFlood flood-opacity="0" result="BackgroundImageFix"/>
<feBlend mode="normal" in="SourceGraphic" in2="BackgroundImageFix" result="shape"/>
<feColorMatrix in="SourceAlpha" type="matrix" values="0 0 0 0 0 0 0 0 0 0 0 0 0 0 0 0 0 0 127 0" result="hardAlpha"/>
<feMorphology radius="11" operator="erode" in="SourceAlpha" result="effect1_innerShadow_11_28"/>
<feOffset/>
<feGaussianBlur stdDeviation="37.2"/>
<feComposite in2="hardAlpha" operator="arithmetic" k2="-1" k3="1"/>
<feColorMatrix type="matrix" values="0 0 0 0 1 0 0 0 0 0.59736 0 0 0 0 0.305793 0 0 0 1 0"/>
<feBlend mode="normal" in2="shape" result="effect1_innerShadow_11_28"/>
</filter>
</defs>
</svg>
